<?xml version="1.0" encoding="UTF-8"?>
<svg version="1.1" xmlns="http://www.w3.org/2000/svg" width="512" height="512">
<path d="M0 0 C168.96 0 337.92 0 512 0 C512 168.96 512 337.92 512 512 C343.04 512 174.08 512 0 512 C0 343.04 0 174.08 0 0 Z " fill="#703A51" transform="translate(0,0)"/>
<path d="M0 0 C-1.98 3.3 -3.96 6.6 -6 10 C-11.93031699 9.46677587 -17.39788101 8.16480486 -23.13085938 6.57446289 C-54.43125351 -2.08569881 -85.34113986 -2.44721148 -117.5 0.3125 C-118.20629547 0.37117249 -118.91259094 0.42984497 -119.64028931 0.49029541 C-128.0142912 1.2070042 -135.97264155 2.42564383 -144 5 C-143.98839844 5.89203125 -143.97679687 6.7840625 -143.96484375 7.703125 C-143.95582031 8.87359375 -143.94679687 10.0440625 -143.9375 11.25 C-143.92589844 12.41015625 -143.91429687 13.5703125 -143.90234375 14.765625 C-143.98217908 17.40977128 -144.21356222 19.49826091 -145 22 C-143.98679688 21.51789063 -142.97359375 21.03578125 -141.9296875 20.5390625 C-140.57820878 19.90086422 -139.22664156 19.26285332 -137.875 18.625 C-137.20984375 18.30789062 -136.5446875 17.99078125 -135.859375 17.6640625 C-125.60271447 12.83739872 -115.21735793 11.20144328 -104.01953125 13.65234375 C-94.59253238 17.1443799 -84.62182251 23.79913241 -80.0078125 32.97265625 C-75.68716047 43.65083913 -75.3732663 57.11945441 -79.75097656 67.83886719 C-83.70664233 76.79715787 -88.34699543 84.75042971 -95 92 C-96.00740234 93.12728516 -96.00740234 93.12728516 -97.03515625 94.27734375 C-103.38955493 101.04802289 -107.93795701 102.98521481 -117.125 103.4375 C-126.05681363 103.89374195 -133.67768419 106.19352988 -141.8984375 109.59765625 C-142.89133789 110.00721558 -142.89133789 110.00721558 -143.90429688 110.42504883 C-145.77460701 111.20797474 -147.63378787 112.01733294 -149.4921875 112.828125 C-153.98826656 114.33015587 -157.85569548 115.07026798 -162.22265625 112.890625 C-170.16574932 105.80761207 -175.37600035 95.5952458 -176.25 84.95703125 C-176.57188574 75.89393576 -174.89264971 68.49715853 -172 60 C-173.5778125 60.495 -173.5778125 60.495 -175.1875 61 C-183.42577212 63.04496116 -191.85648701 62.52381294 -200.01953125 60.45703125 C-206.13702842 59.04530113 -211.57245918 60.03431841 -217 63 C-221.34716987 66.65557466 -222.38012152 69.92452084 -223.8125 75.375 C-226.30984481 84.86088231 -230.50316046 98.28884078 -238.89453125 104.203125 C-244.68670755 106.39534015 -250.95039902 106.23414937 -256.6640625 103.921875 C-261.85529359 100.7619952 -265.61412475 96.62299242 -268 91 C-268 90.01 -268 89.02 -268 88 C-268.66 88 -269.32 88 -270 88 C-270.25265625 88.86109375 -270.5053125 89.7221875 -270.765625 90.609375 C-272.06498817 94.1785118 -273.74319918 97.02978474 -275.75 100.25 C-284.19536043 114.51221027 -287.45095509 130.97927783 -291 147 C-290.38511719 146.57847656 -289.77023437 146.15695313 -289.13671875 145.72265625 C-288.32847656 145.17480469 -287.52023437 144.62695312 -286.6875 144.0625 C-285.88699219 143.51722656 -285.08648437 142.97195312 -284.26171875 142.41015625 C-279.45438092 139.41283508 -274.50498867 139.37563228 -269 140 C-265.66816505 141.80474393 -264.43074235 143.1385153 -262.75 146.5 C-261.65162823 151.62573491 -261.32130246 156.77460741 -261 162 C-260.36384766 160.69675781 -260.36384766 160.69675781 -259.71484375 159.3671875 C-252.65034948 145.48662074 -252.65034948 145.48662074 -247 143 C-243.72764123 142.56556616 -241.05448598 142.73179469 -238 144 C-229.46834331 151.31843945 -225.88631918 162.3207694 -223.0625 172.875 C-222.85109375 173.65891113 -222.6396875 174.44282227 -222.421875 175.25048828 C-221.16562029 180.29153077 -220.80485044 184.80783897 -221 190 C-222.82421875 189.91796875 -222.82421875 189.91796875 -225 189 C-226.13883864 186.74369503 -226.99317532 184.68291934 -227.8125 182.3125 C-229.83470746 176.87691644 -232.01726935 171.61984503 -234.625 166.4375 C-235.17414063 165.34308594 -235.72328125 164.24867188 -236.2890625 163.12109375 C-239.21559871 157.18160493 -239.21559871 157.18160493 -244 153 C-244.26296875 153.68964844 -244.5259375 154.37929687 -244.796875 155.08984375 C-246.13645772 158.33006818 -247.69180143 161.42153666 -249.25 164.5625 C-261.00239164 189.15736018 -264.9850505 215.73776609 -256.0546875 241.75390625 C-248.29514063 260.50071066 -233.39977641 271.62255979 -215.17382812 279.18994141 C-209.61629738 281.26090805 -203.86467355 282.21078639 -198 283 C-197.07445312 283.12890625 -196.14890625 283.2578125 -195.1953125 283.390625 C-190.4139404 283.95664413 -185.64159454 284.17993148 -180.828125 284.06640625 C-178.69328247 284.01627873 -176.55663311 284.03624174 -174.421875 284.08984375 C-164.06806347 284.01648679 -159.24445621 281.16279568 -152 274 C-150.58911722 272.8263453 -149.17292899 271.65902055 -147.75 270.5 C-140.0866742 263.64826879 -135.1902842 255.50541052 -131.00927734 246.1953125 C-130.29462387 244.64084612 -129.54955603 243.10019703 -128.78369141 241.5703125 C-118.45423003 220.8257327 -119.72291725 200.33104039 -126.80029297 178.53540039 C-127.59438761 176.29548119 -128.43585849 174.08382928 -129.3125 171.875 C-129.6122876 171.10800781 -129.9120752 170.34101563 -130.22094727 169.55078125 C-132.33118277 164.29824454 -134.7917957 159.47500177 -137.93359375 154.75 C-139 153 -139 153 -139 151 C-139.66 151 -140.32 151 -141 151 C-141.27851807 151.71172363 -141.55703613 152.42344727 -141.84399414 153.15673828 C-142.98950901 155.97419683 -144.22197425 158.73068283 -145.49609375 161.4921875 C-145.97240234 162.52730469 -146.44871094 163.56242188 -146.93945312 164.62890625 C-147.43380859 165.70011719 -147.92816406 166.77132812 -148.4375 167.875 C-152.82836991 177.38891563 -152.82836991 177.38891563 -157 187 C-158.32 186.67 -159.64 186.34 -161 186 C-162.28507075 180.87568061 -161.51255078 177.0408612 -159.9375 172.125 C-159.71070557 171.39047607 -159.48391113 170.65595215 -159.25024414 169.89916992 C-157.60266497 164.66104299 -155.82113694 159.47020733 -153.9375 154.3125 C-153.70474365 153.66619629 -153.4719873 153.01989258 -153.23217773 152.35400391 C-151.1669365 146.88723096 -148.93047709 142.28698472 -144 139 C-140.51872913 139.34615743 -139.9435637 140.06136259 -137.44921875 142.7734375 C-136.51669875 143.96470204 -135.59672498 145.165862 -134.6875 146.375 C-134.20547119 147.0040625 -133.72344238 147.633125 -133.22680664 148.28125 C-127.828519 155.41041717 -122.62256145 162.36687907 -120 171 C-119.39281935 168.77161621 -118.78882127 166.54246725 -118.1875 164.3125 C-118.00300293 163.63131104 -117.81850586 162.95012207 -117.62841797 162.24829102 C-116.49107721 157.99882627 -115.51356573 153.74730983 -114.625 149.4375 C-110.23208332 130.34700572 -99.06476212 116.45896137 -85.73583984 102.79150391 C-84.1100534 101.11358254 -82.51500824 99.4116898 -80.92578125 97.69921875 C-72.17998798 88.41823514 -59.16680379 76.82994317 -45.9375 75.75 C-45.298125 75.8325 -44.65875 75.915 -44 76 C-44.21593072 79.69045233 -44.80691705 80.8240994 -47.58984375 83.359375 C-48.69743013 84.16774524 -49.81391075 84.96402467 -50.9375 85.75 C-52.13608851 86.63666076 -53.33268537 87.52601972 -54.52734375 88.41796875 C-55.41655518 89.07611572 -55.41655518 89.07611572 -56.32373047 89.74755859 C-65.82021834 96.8429537 -72.53551377 105.51105375 -79.49414062 114.97851562 C-80.81326498 116.74932459 -82.16306919 118.48277762 -83.546875 120.203125 C-92.99636994 132.1290393 -98.37824678 144.03873761 -101 159 C-101.343536 160.54507249 -101.69696741 162.08796746 -102.05859375 163.62890625 C-102.24518555 164.42635254 -102.43177734 165.22379883 -102.62402344 166.04541016 C-102.98945313 167.59674471 -103.35838251 169.14726067 -103.73144531 170.69677734 C-106.89467709 184.47943011 -103.15678563 199.46118048 -97 212 C-95.58335111 213.56249012 -95.58335111 213.56249012 -94 215 C-92.77223737 216.69442354 -91.56606045 218.40457935 -90.375 220.125 C-80.90276418 233.13857989 -70.75578666 240.09188909 -54.83203125 243.41015625 C-46.60177017 244.67699562 -38.29823375 245.34447366 -30 246 C-31.21815028 235.64868835 -31.21815028 235.64868835 -36.94042969 227.37451172 C-40.90218406 224.96934342 -45.10393317 223.13907128 -49.3203125 221.23046875 C-61.69383082 215.61215637 -70.54766679 201.9963742 -75.328125 189.5390625 C-78.3728228 178.10760621 -77.19170856 166.61563412 -72 156 C-67.13029991 147.67671438 -60.01217911 142.23078119 -51 139 C-41.78751682 136.67752525 -30.21223347 138.13561083 -22 143 C-18.94472765 146.84328377 -18.37840355 150.76617451 -17.75 155.5 C-14.80654594 174.25035849 -7.79501584 199.02227613 7.6640625 211.32421875 C13.45583772 215.38987377 19.11683032 215.81211498 26 215 C33.08838909 211.18317511 37.51249267 202.46252198 40 195 C49.01780011 194.53221786 55.8672232 195.00075527 64 199 C68.16543272 193.12769505 70.40152957 187.42679509 72.25 180.5 C72.50523437 179.60152344 72.76046875 178.70304688 73.0234375 177.77734375 C75.25493502 169.70871849 76.15436971 161.9252514 76.203125 153.58203125 C76.20882507 152.80292892 76.21452515 152.0238266 76.22039795 151.22111511 C76.22978266 149.58158701 76.23635569 147.94204061 76.24023438 146.30249023 C76.24990753 143.83607833 76.28097972 141.3705129 76.3125 138.90429688 C76.36785166 130.37917651 75.92461238 122.73699071 73.64746094 114.4753418 C73 112 73 112 73 109 C76.3 107.68 79.6 106.36 83 105 C91.87151481 130.00154174 91.67833587 160.6875405 83.8046875 186.00390625 C82.7167322 190.05469127 82.26011543 192.59421931 84.25 196.375 C84.8275 197.24125 85.405 198.1075 86 199 C107.27084205 234.13564193 108.6727395 276.86182596 99.3125 315.8125 C90.6155467 345.49855714 75.75173791 372.71220052 48 388 C37.94289371 393.38938062 26.16304589 393.34910594 15 394 C14.29359375 394.04672852 13.5871875 394.09345703 12.859375 394.14160156 C3.73098186 394.70269598 -1.89615259 393.47934889 -8.875 387.5625 C-14.62135581 380.63307094 -13.70204887 371.84667955 -13.23388672 363.29980469 C-11.86752976 349.86443664 -1.0292415 336.38984626 9 328 C13.78915019 324.60334728 18.70996438 321.55253467 24 319 C27.59635864 321.69726898 30.24266007 324.46715821 33 328 C33.78375 328.70125 34.5675 329.4025 35.375 330.125 C38.95766977 334.04887642 44 340.46261588 44 346 C45.11375 346.20625 46.2275 346.4125 47.375 346.625 C51 348 51 348 52.3125 350.4375 C52.6528125 352.2009375 52.6528125 352.2009375 53 354 C53.27263672 355.40572266 53.27263672 355.40572266 53.55078125 356.83984375 C54.06457435 359.55560728 54.54405248 362.27401589 55 365 C66.74545084 354.5040652 74.05880669 341.43442232 80 327 C80.30180176 326.27635254 80.60360352 325.55270508 80.91455078 324.80712891 C96.33426496 287.00421896 92.98680304 246.46293264 80.69262695 208.3581543 C79.97724406 205.92252394 79.46187599 203.49501698 79 201 C78.34 201 77.68 201 77 201 C76.73574219 201.69480469 76.47148437 202.38960937 76.19921875 203.10546875 C71.49677924 214.45565662 66.1664366 224.4167817 55 230 C53.6337242 231.32092225 52.3047225 232.68074592 51 234.0625 C33.24820131 252.29005879 10.5162598 257.49648495 -14.375 258.375 C-20.94758725 258.69758097 -26.69468455 260.61967591 -32.8840332 262.69555664 C-59.86028309 271.70396444 -86.38385404 269.53286953 -114 265 C-113.34 265.66 -112.68 266.32 -112 267 C-112 267.99 -112 268.98 -112 270 C-117.09522645 269.28903817 -120.388885 266.99418168 -124.59765625 264.1796875 C-126.87963236 262.81397671 -126.87963236 262.81397671 -129.16796875 263.12890625 C-132.17249716 264.55749865 -133.34279963 267.21827081 -135 270 C-134.30132812 270.62648438 -133.60265625 271.25296875 -132.8828125 271.8984375 C-131.97273437 272.71570313 -131.06265625 273.53296875 -130.125 274.375 C-129.22007812 275.18710937 -128.31515625 275.99921875 -127.3828125 276.8359375 C-125.89103817 278.19076205 -124.42494565 279.57505435 -123 281 C-123 281.99 -123 282.98 -123 284 C-129.04433574 282.64002446 -132.63494136 279.14348206 -137 275 C-138.29277786 275.85248395 -139.58412941 276.70713073 -140.875 277.5625 C-142.11443359 278.38041016 -142.11443359 278.38041016 -143.37890625 279.21484375 C-145.08183193 280.37466049 -146.75886919 281.57377914 -148.40234375 282.81640625 C-163.21589558 293.93257237 -179.8902939 294.15977576 -197.5625 291.75 C-205.10955021 290.63624134 -212.05878549 289.27696822 -219 286 C-219.60118652 285.71995117 -220.20237305 285.43990234 -220.82177734 285.15136719 C-241.61310345 275.38689655 -241.61310345 275.38689655 -248 269 C-248.58007812 269.74056641 -248.58007812 269.74056641 -249.171875 270.49609375 C-249.69265625 271.13675781 -250.2134375 271.77742188 -250.75 272.4375 C-251.26046875 273.07558594 -251.7709375 273.71367187 -252.296875 274.37109375 C-254.24102096 276.23051775 -255.32626797 276.79473317 -258 277 C-258.99 276.34 -259.98 275.68 -261 275 C-260.49259538 270.60249328 -257.91706686 268.13051078 -255 265 C-254.34 265 -253.68 265 -253 265 C-255.31 262.03 -257.62 259.06 -260 256 C-261.010625 256.33 -262.02125 256.66 -263.0625 257 C-266.75479911 258.07001321 -270.15248207 258.15704155 -274 258 C-274 254 -274 254 -272.25 252.21875 C-270.75 251.07291667 -269.25 249.92708333 -267.75 248.78125 C-265.5327855 246.94062048 -265.5327855 246.94062048 -266 243 C-266.73347656 242.73574219 -267.46695313 242.47148437 -268.22265625 242.19921875 C-271.00056483 240.99975612 -273.05693957 239.66687595 -275.4375 237.8125 C-276.15808594 237.26207031 -276.87867188 236.71164062 -277.62109375 236.14453125 C-283.91593493 230.46987147 -288.0633157 223.91703397 -292.1875 216.5625 C-292.96770508 215.20801758 -292.96770508 215.20801758 -293.76367188 213.82617188 C-307.50905534 189.58303706 -306.08004675 155.34811918 -299 129 C-298.55948168 127.22666533 -298.11939149 125.45322426 -297.6796875 123.6796875 C-294.95833367 113.11236482 -291.40033944 103.55451576 -286.10498047 94.01855469 C-284.93390042 91.8792507 -283.82676969 89.71361883 -282.72265625 87.5390625 C-274.47547888 71.58489363 -262.85616486 59.71689681 -250.3125 47.0625 C-249.82721832 46.57149811 -249.34193665 46.08049622 -248.84194946 45.57461548 C-243.22867973 39.9148502 -237.49095718 34.57568309 -231.18041992 29.69067383 C-229.07066931 28.05479621 -227.03512126 26.35221579 -225 24.625 C-211.90907196 14.55505536 -196.22728372 8.0770495 -181 2 C-180.19949219 1.67902344 -179.39898437 1.35804687 -178.57421875 1.02734375 C-169.38260816 -2.61576559 -160.09281469 -5.67877094 -150.5625 -8.3125 C-149.68730713 -8.55508545 -148.81211426 -8.7976709 -147.91040039 -9.04760742 C-100.41726283 -21.69307435 -45.48040839 -17.45178461 0 0 Z " fill="#48948F" transform="translate(355,86)"/>
<path d="M0 0 C-0.37511719 0.44988281 -0.75023437 0.89976563 -1.13671875 1.36328125 C-8.88763113 11.10561192 -13.67213286 22.38537249 -12.875 35 C-11.75991103 43.14274269 -9.25535554 51.43968397 -3 57 C-0.055792 58.29862373 2.89425078 59.18385073 6 60 C4.16299895 67.46404412 1.76303059 74.36526214 -1.375 81.375 C-2.17732881 83.21156429 -2.97811534 85.04880312 -3.77734375 86.88671875 C-4.16003418 87.76376465 -4.54272461 88.64081055 -4.93701172 89.54443359 C-11.44954439 104.58877295 -13.36576122 117.74345864 -14 134 C-14.78761719 133.65066406 -15.57523437 133.30132812 -16.38671875 132.94140625 C-26.68795808 128.63804828 -36.8107709 126.02108951 -47.65625 129.9296875 C-57.27199913 134.3208796 -63.32484504 140.38926209 -67.3125 150.1875 C-70.9738504 161.34077327 -71.31653192 173.28759603 -66.01708984 183.98388672 C-58.45545212 197.86267666 -49.94793872 206.67864204 -35.57421875 213.2734375 C-28.51215392 216.68483931 -28.51215392 216.68483931 -26.734375 221.25 C-26.24710937 223.10625 -26.24710937 223.10625 -25.75 225 C-25.24726562 226.85625 -25.24726562 226.85625 -24.734375 228.75 C-24 232 -24 232 -24 235 C-40.4999022 235.88921629 -59.71949982 233.62440014 -73 223 C-79.24765148 217.37711367 -84.72469588 211.27214109 -89 204 C-89 203.34 -89 202.68 -89 202 C-89.99 201.67 -90.98 201.34 -92 201 C-103.333321 179.6463647 -99.89242117 156.54905735 -93.18994141 134.3125 C-89.62546965 124.08953374 -83.66412205 115.43032706 -77 107 C-76.47003418 106.3287207 -75.94006836 105.65744141 -75.39404297 104.96582031 C-72.1057194 100.82553504 -68.76389302 96.73365213 -65.38037109 92.67089844 C-64.28179898 91.34110934 -63.20861358 89.99035754 -62.14453125 88.6328125 C-56.93364302 82.17613351 -50.15181171 77.33930187 -43.60644531 72.31518555 C-40.74317118 69.97104303 -39.19466227 68.58398682 -38 65 C-51.85381058 68.06443736 -62.66490938 75.73887375 -72.52783203 85.54248047 C-74.00889558 87.00880707 -75.51483033 88.44510377 -77.02734375 89.87890625 C-98.66348621 110.62208443 -107.01868789 132.9500224 -113 162 C-115.19811609 159.80188391 -115.59023848 158.52769381 -116.5625 155.625 C-119.17527244 148.86883842 -123.51749016 143.61817928 -128 138 C-129.35558452 136.25109807 -130.70991013 134.501219 -132.0625 132.75 C-133.04056672 131.49913916 -134.01927066 130.24877433 -135 129 C-137.34148231 128.87786106 -137.34148231 128.87786106 -140 130 C-145.22111622 135.68878305 -147.3339256 143.79096342 -149.75 150.9375 C-150.34748047 152.63036133 -150.34748047 152.63036133 -150.95703125 154.35742188 C-153.10722559 160.62214063 -154.70070617 166.3679208 -155 173 C-154.67 173.66 -154.34 174.32 -154 175 C-153.01 175 -152.02 175 -151 175 C-150.6596875 174.11441406 -150.319375 173.22882813 -149.96875 172.31640625 C-147.12545032 165.01474886 -144.08750585 157.84066896 -140.75 150.75 C-140.40904297 150.02369385 -140.06808594 149.2973877 -139.71679688 148.54907227 C-138.29107542 145.55271879 -136.84377798 142.76566698 -135 140 C-134.34 140 -133.68 140 -133 140 C-123.1992862 155.91227003 -116.35263667 172.17014567 -115.17919922 190.96728516 C-115.00395839 192.95509866 -114.64611778 194.92411368 -114.28515625 196.88671875 C-111.87214077 211.41508281 -118.9385493 224.13200675 -125 237 C-125.43006348 237.9269165 -125.86012695 238.85383301 -126.30322266 239.80883789 C-128.74609148 244.91085622 -131.39222165 249.31200212 -135.125 253.5625 C-135.59437988 254.10769287 -136.06375977 254.65288574 -136.54736328 255.21459961 C-141.19599057 260.47155242 -146.4112036 264.76052361 -152 269 C-152.69351563 269.721875 -153.38703125 270.44375 -154.1015625 271.1875 C-158.65270865 274.03349975 -163.22666909 273.81220967 -168.5 273.9375 C-169.60553223 273.97125732 -170.71106445 274.00501465 -171.85009766 274.03979492 C-185.99780876 274.29623359 -201.07057528 273.19929895 -214 267 C-215.18851562 266.44441406 -216.37703125 265.88882812 -217.6015625 265.31640625 C-230.1051267 259.21298757 -239.73759065 251.01090777 -247 239 C-247.38671875 238.36835938 -247.7734375 237.73671875 -248.171875 237.0859375 C-258.5605296 218.3064465 -257.80812086 195.539247 -252.29980469 175.44580078 C-248.82668788 163.54327659 -244.30926555 152.66839447 -238 142 C-232.34156986 143.88614338 -229.66329627 150.87621427 -227 156 C-219 172.87568944 -219 172.87568944 -219 178 C-217.68 178.33 -216.36 178.66 -215 179 C-217.28272449 165.04383075 -219.7827398 150.8717221 -227.765625 138.91796875 C-229 137 -229 137 -230 134 C-231.0725 134.020625 -232.145 134.04125 -233.25 134.0625 C-237 134 -237 134 -239.0625 133.1875 C-241.31178479 132.75767392 -241.31178479 132.75767392 -243.84765625 135 C-247.40987813 138.07766885 -249.31979101 141.63410819 -251.375 145.8125 C-251.72949219 146.50537109 -252.08398438 147.19824219 -252.44921875 147.91210938 C-253.31161269 149.60193534 -254.15755422 151.30014112 -255 153 C-255.33 153 -255.66 153 -256 153 C-256.03738281 152.07058594 -256.07476562 151.14117187 -256.11328125 150.18359375 C-256.52241604 140.67075457 -256.52241604 140.67075457 -260 132 C-264.27772389 129.14818407 -267.97789642 129.38338077 -273 130 C-277.44152513 131.51280135 -280.79409341 133.57840551 -284 137 C-284.66 136.67 -285.32 136.34 -286 136 C-284.95183732 131.60062453 -283.88377949 127.20629847 -282.8125 122.8125 C-282.52052734 121.58595703 -282.22855469 120.35941406 -281.92773438 119.09570312 C-278.96407799 107.01800669 -274.934699 95.95119251 -268.6875 85.1875 C-268.0059082 83.98770508 -268.0059082 83.98770508 -267.31054688 82.76367188 C-266.21494625 80.83772129 -265.11160139 78.91674383 -264 77 C-263.34 77 -262.68 77 -262 77 C-261.74347656 77.65226562 -261.48695313 78.30453125 -261.22265625 78.9765625 C-258.6974038 84.74128022 -256.16229259 88.76576265 -250.66796875 91.99609375 C-245.57659468 93.91188165 -240.29295779 94.18875714 -235 93 C-229.96529799 89.65605613 -227.49300703 86.08370626 -224.9375 80.6875 C-224.59662354 79.99543457 -224.25574707 79.30336914 -223.90454102 78.59033203 C-221.54725524 73.63427425 -219.90393888 68.65306995 -218.4375 63.375 C-216.94771847 58.09264594 -215.49461192 54.25872964 -210.94140625 50.9453125 C-205.86745342 48.47469563 -201.93600612 47.77039662 -196.3125 48.3125 C-194.63607422 48.46138672 -194.63607422 48.46138672 -192.92578125 48.61328125 C-190 49 -190 49 -187 50 C-179.35977222 50.45502742 -172.38074233 50.00155724 -165 48 C-165.28875 48.92039063 -165.5775 49.84078125 -165.875 50.7890625 C-170.08242287 65.13520576 -170.60695095 77.11332764 -164 91 C-161.37854294 95.37803443 -158.48572603 99.42673255 -154 102 C-147.63124849 102.87461007 -142.77617061 100.60249558 -137.0625 98.125 C-128.44475626 94.44930825 -120.99425947 91.884297 -111.5 91.625 C-101.3898378 91.00437618 -96.24423149 88.04930825 -89.30078125 80.74609375 C-78.17656862 67.46880771 -70.97363171 52.60616371 -72 35 C-73.16054807 25.28959147 -75.96699903 17.95218279 -83.64453125 11.671875 C-94.65670311 3.85560708 -104.66629311 1.54255341 -118 3 C-123.780266 4.54021491 -128.93671849 6.93724825 -134.23828125 9.66796875 C-137 11 -137 11 -139 11 C-139 5.39 -139 -0.22 -139 -6 C-131.83636703 -9.15199851 -124.73698075 -10.15729138 -117 -11 C-115.80238037 -11.13752686 -115.80238037 -11.13752686 -114.58056641 -11.27783203 C-79.45801554 -15.18768842 -32.11121814 -17.73627392 0 0 Z " fill="#000000" transform="translate(349,97)"/>
<path d="M0 0 C-1.98 3.3 -3.96 6.6 -6 10 C-11.93031699 9.46677587 -17.39788101 8.16480486 -23.13085938 6.57446289 C-54.43125351 -2.08569881 -85.34113986 -2.44721148 -117.5 0.3125 C-118.20629547 0.37117249 -118.91259094 0.42984497 -119.64028931 0.49029541 C-128.0142912 1.2070042 -135.97264155 2.42564383 -144 5 C-143.98839844 5.89203125 -143.97679687 6.7840625 -143.96484375 7.703125 C-143.95582031 8.87359375 -143.94679687 10.0440625 -143.9375 11.25 C-143.92589844 12.41015625 -143.91429687 13.5703125 -143.90234375 14.765625 C-143.98217908 17.40977128 -144.21356222 19.49826091 -145 22 C-143.98679688 21.51789063 -142.97359375 21.03578125 -141.9296875 20.5390625 C-140.57820878 19.90086422 -139.22664156 19.26285332 -137.875 18.625 C-137.20984375 18.30789062 -136.5446875 17.99078125 -135.859375 17.6640625 C-125.60271447 12.83739872 -115.21735793 11.20144328 -104.01953125 13.65234375 C-94.59253238 17.1443799 -84.62182251 23.79913241 -80.0078125 32.97265625 C-75.68716047 43.65083913 -75.3732663 57.11945441 -79.75097656 67.83886719 C-83.70664233 76.79715787 -88.34699543 84.75042971 -95 92 C-96.00740234 93.12728516 -96.00740234 93.12728516 -97.03515625 94.27734375 C-103.38955493 101.04802289 -107.93795701 102.98521481 -117.125 103.4375 C-126.05681363 103.89374195 -133.67768419 106.19352988 -141.8984375 109.59765625 C-142.89133789 110.00721558 -142.89133789 110.00721558 -143.90429688 110.42504883 C-145.77460701 111.20797474 -147.63378787 112.01733294 -149.4921875 112.828125 C-153.98826656 114.33015587 -157.85569548 115.07026798 -162.22265625 112.890625 C-170.16574932 105.80761207 -175.37600035 95.5952458 -176.25 84.95703125 C-176.57188574 75.89393576 -174.89264971 68.49715853 -172 60 C-173.5778125 60.495 -173.5778125 60.495 -175.1875 61 C-183.42577212 63.04496116 -191.85648701 62.52381294 -200.01953125 60.45703125 C-206.13702842 59.04530113 -211.57245918 60.03431841 -217 63 C-221.34716987 66.65557466 -222.38012152 69.92452084 -223.8125 75.375 C-226.30984481 84.86088231 -230.50316046 98.28884078 -238.89453125 104.203125 C-244.68670755 106.39534015 -250.95039902 106.23414937 -256.6640625 103.921875 C-261.85529359 100.7619952 -265.61412475 96.62299242 -268 91 C-268 90.01 -268 89.02 -268 88 C-268.66 88 -269.32 88 -270 88 C-270.25265625 88.86109375 -270.5053125 89.7221875 -270.765625 90.609375 C-272.06498817 94.1785118 -273.74319918 97.02978474 -275.75 100.25 C-284.19536043 114.51221027 -287.45095509 130.97927783 -291 147 C-290.38511719 146.57847656 -289.77023437 146.15695313 -289.13671875 145.72265625 C-288.32847656 145.17480469 -287.52023437 144.62695312 -286.6875 144.0625 C-285.88699219 143.51722656 -285.08648437 142.97195312 -284.26171875 142.41015625 C-279.45438092 139.41283508 -274.50498867 139.37563228 -269 140 C-265.57031744 141.85774472 -264.37477339 143.07985744 -262.91015625 146.67578125 C-259.3821195 159.56144337 -262.75432655 170.94937692 -267.2734375 183.02734375 C-273.44717287 199.86329592 -272.60180908 216.19457277 -267 233 C-266.8125 236.5625 -266.8125 236.5625 -267 240 C-267.66 240.66 -268.32 241.32 -269 242 C-270.34461242 241.20630517 -271.67494022 240.38842409 -273 239.5625 C-274.11375 238.88380859 -274.11375 238.88380859 -275.25 238.19140625 C-282.73304601 232.22835396 -287.72995897 224.73171908 -292.3125 216.4375 C-292.82361328 215.54353516 -293.33472656 214.64957031 -293.86132812 213.72851562 C-307.49762602 189.48817853 -306.06630817 155.29699158 -299 129 C-298.55948168 127.22666533 -298.11939149 125.45322426 -297.6796875 123.6796875 C-294.95833367 113.11236482 -291.40033944 103.55451576 -286.10498047 94.01855469 C-284.93390042 91.8792507 -283.82676969 89.71361883 -282.72265625 87.5390625 C-274.47547888 71.58489363 -262.85616486 59.71689681 -250.3125 47.0625 C-249.82721832 46.57149811 -249.34193665 46.08049622 -248.84194946 45.57461548 C-243.22867973 39.9148502 -237.49095718 34.57568309 -231.18041992 29.69067383 C-229.07066931 28.05479621 -227.03512126 26.35221579 -225 24.625 C-211.90907196 14.55505536 -196.22728372 8.0770495 -181 2 C-180.19949219 1.67902344 -179.39898437 1.35804687 -178.57421875 1.02734375 C-169.38260816 -2.61576559 -160.09281469 -5.67877094 -150.5625 -8.3125 C-149.68730713 -8.55508545 -148.81211426 -8.7976709 -147.91040039 -9.04760742 C-100.41726283 -21.69307435 -45.48040839 -17.45178461 0 0 Z " fill="#49948F" transform="translate(355,86)"/>
<path d="M0 0 C14.3501966 4.10300161 27.45854028 10.41520053 39 20 C40.010625 20.78375 41.02125 21.5675 42.0625 22.375 C45.74578594 25.66644701 48.83854392 29.21210725 52 33 C52.93226716 34.06121944 53.86456086 35.12241558 54.796875 36.18359375 C69.14427383 52.8814748 76.25205729 73.23697664 81.4375 94.375 C81.70203979 95.43678467 81.70203979 95.43678467 81.97192383 96.52001953 C83.51204596 103.20338402 83.51204596 103.20338402 82 106 C79.13833035 107.44976837 76.08059 108.13222817 73 109 C73.42551147 110.41055664 73.42551147 110.41055664 73.85961914 111.84960938 C76.67285465 121.71620215 77.6032444 130.89813056 77.46655273 141.13623047 C77.43751121 143.49908769 77.44602257 145.85969478 77.45898438 148.22265625 C77.43459801 166.27794218 74.72211541 185.98903843 64 201 C63.46375 200.54625 62.9275 200.0925 62.375 199.625 C57.48024731 196.27595869 52.44527616 195.70444959 46.625 195.375 C45.37976563 195.30023438 44.13453125 195.22546875 42.8515625 195.1484375 C41.44003906 195.07496094 41.44003906 195.07496094 40 195 C39.90074219 195.7115625 39.80148437 196.423125 39.69921875 197.15625 C38.16356493 203.40181413 33.74582275 209.61303312 29.25 214.1875 C24.49178135 216.84112194 20.32587862 216.71064947 15 216 C5.15093609 212.7169787 -1.31571029 203.93908572 -5.98242188 195.08740234 C-17.80170098 170.84200016 -25.21408561 140.9835958 -17.6015625 114.39453125 C-14.82932109 106.36570831 -11.14989643 98.65897196 -7.640625 90.93359375 C-4.69373363 84.40877837 -2.20491519 77.80965519 0 71 C-0.58007812 70.93683594 -1.16015625 70.87367188 -1.7578125 70.80859375 C-7.2165144 69.95285665 -10.37983458 68.65012426 -13.71875 64.1796875 C-20.13219934 53.26900234 -20.96438337 42.59772448 -18.0859375 30.4765625 C-15.76634158 23.05051799 -11.90106633 16.97317459 -7 11 C-5.37902728 8.39413246 -3.81777272 5.75902369 -2.26953125 3.109375 C-1 1 -1 1 0 0 Z " fill="#2E85AA" transform="translate(355,86)"/>
<path d="M0 0 C-0.21593072 3.69045233 -0.80691705 4.8240994 -3.58984375 7.359375 C-4.69743013 8.16774524 -5.81391075 8.96402467 -6.9375 9.75 C-8.13608851 10.63666076 -9.33268537 11.52601972 -10.52734375 12.41796875 C-11.41655518 13.07611572 -11.41655518 13.07611572 -12.32373047 13.74755859 C-21.82021834 20.8429537 -28.53551377 29.51105375 -35.49414062 38.97851562 C-36.81326498 40.74932459 -38.16306919 42.48277762 -39.546875 44.203125 C-48.99636994 56.1290393 -54.37824678 68.03873761 -57 83 C-57.343536 84.54507249 -57.69696741 86.08796746 -58.05859375 87.62890625 C-58.33848145 88.82507568 -58.33848145 88.82507568 -58.62402344 90.04541016 C-58.98945313 91.59674471 -59.35838251 93.14726067 -59.73144531 94.69677734 C-62.89467709 108.47943011 -59.15678563 123.46118048 -53 136 C-51.58335111 137.56249012 -51.58335111 137.56249012 -50 139 C-48.77223737 140.69442354 -47.56606045 142.40457935 -46.375 144.125 C-36.90276418 157.13857989 -26.75578666 164.09188909 -10.83203125 167.41015625 C-2.60177017 168.67699562 5.70176625 169.34447366 14 170 C14.53293835 171.74635165 15.05090663 173.49727652 15.5625 175.25 C15.85253906 176.22453125 16.14257812 177.1990625 16.44140625 178.203125 C17.32711136 182.63784427 17.32711136 182.63784427 16 185 C13.68924933 186.11433741 11.69163504 186.86343055 9.25 187.5625 C8.18785278 187.87610474 8.18785278 187.87610474 7.10424805 188.19604492 C-18.7985995 195.42650016 -43.79782906 193.30078196 -70 189 C-69.34 189.66 -68.68 190.32 -68 191 C-68 191.99 -68 192.98 -68 194 C-73.09522645 193.28903817 -76.388885 190.99418168 -80.59765625 188.1796875 C-82.87963236 186.81397671 -82.87963236 186.81397671 -85.16796875 187.12890625 C-88.17249716 188.55749865 -89.34279963 191.21827081 -91 194 C-90.30132812 194.62648438 -89.60265625 195.25296875 -88.8828125 195.8984375 C-87.97273437 196.71570313 -87.06265625 197.53296875 -86.125 198.375 C-85.22007812 199.18710937 -84.31515625 199.99921875 -83.3828125 200.8359375 C-81.89103817 202.19076205 -80.42494565 203.57505435 -79 205 C-79 205.99 -79 206.98 -79 208 C-85.04433574 206.64002446 -88.63494136 203.14348206 -93 199 C-94.29277786 199.85248395 -95.58412941 200.70713073 -96.875 201.5625 C-97.70128906 202.10777344 -98.52757812 202.65304687 -99.37890625 203.21484375 C-101.08183193 204.37466049 -102.75886919 205.57377914 -104.40234375 206.81640625 C-119.21589558 217.93257237 -135.8902939 218.15977576 -153.5625 215.75 C-161.10955021 214.63624134 -168.05878549 213.27696822 -175 210 C-175.60118652 209.71995117 -176.20237305 209.43990234 -176.82177734 209.15136719 C-197.61310345 199.38689655 -197.61310345 199.38689655 -204 193 C-204.58007812 193.74056641 -204.58007812 193.74056641 -205.171875 194.49609375 C-205.69265625 195.13675781 -206.2134375 195.77742187 -206.75 196.4375 C-207.26046875 197.07558594 -207.7709375 197.71367187 -208.296875 198.37109375 C-210.24102096 200.23051775 -211.32626797 200.79473317 -214 201 C-215.485 200.01 -215.485 200.01 -217 199 C-216.49259538 194.60249328 -213.91706686 192.13051078 -211 189 C-210.34 189 -209.68 189 -209 189 C-211.31 186.03 -213.62 183.06 -216 180 C-217.010625 180.33 -218.02125 180.66 -219.0625 181 C-222.75479911 182.07001321 -226.15248207 182.15704155 -230 182 C-230 178 -230 178 -228.25 176.21875 C-226.75 175.07291667 -225.25 173.92708333 -223.75 172.78125 C-221.5327855 170.94062048 -221.5327855 170.94062048 -222 167 C-222.66 167 -223.32 167 -224 167 C-223.96519531 166.41734375 -223.93039063 165.8346875 -223.89453125 165.234375 C-223.69272749 159.12260385 -224.62704706 153.94145439 -226.19140625 148.05078125 C-232.54601812 124.07516835 -224.29870525 98.31160032 -212.3984375 77.15234375 C-209.84237553 73.12163065 -207.31894328 69.20969191 -203 67 C-199.79662593 66.72475579 -197.01988699 66.87788446 -194 68 C-185.45847549 75.27852469 -181.88014606 86.34384188 -179.0625 96.875 C-178.85109375 97.65891113 -178.6396875 98.44282227 -178.421875 99.25048828 C-177.16562029 104.29153077 -176.80485044 108.80783897 -177 114 C-178.82421875 113.91796875 -178.82421875 113.91796875 -181 113 C-182.13883864 110.74369503 -182.99317532 108.68291934 -183.8125 106.3125 C-185.83470746 100.87691644 -188.01726935 95.61984503 -190.625 90.4375 C-191.17414063 89.34308594 -191.72328125 88.24867188 -192.2890625 87.12109375 C-195.21559871 81.18160493 -195.21559871 81.18160493 -200 77 C-200.26296875 77.68964844 -200.5259375 78.37929687 -200.796875 79.08984375 C-202.13645772 82.33006818 -203.69180143 85.42153666 -205.25 88.5625 C-217.00239164 113.15736018 -220.9850505 139.73776609 -212.0546875 165.75390625 C-204.29514063 184.50071066 -189.39977641 195.62255979 -171.17382812 203.18994141 C-165.61629738 205.26090805 -159.86467355 206.21078639 -154 207 C-153.07445312 207.12890625 -152.14890625 207.2578125 -151.1953125 207.390625 C-146.4139404 207.95664413 -141.64159454 208.17993148 -136.828125 208.06640625 C-134.69328247 208.01627873 -132.55663311 208.03624174 -130.421875 208.08984375 C-120.06806347 208.01648679 -115.24445621 205.16279568 -108 198 C-106.58911722 196.8263453 -105.17292899 195.65902055 -103.75 194.5 C-96.0866742 187.64826879 -91.1902842 179.50541052 -87.00927734 170.1953125 C-86.29462387 168.64084612 -85.54955603 167.10019703 -84.78369141 165.5703125 C-74.45423003 144.8257327 -75.72291725 124.33104039 -82.80029297 102.53540039 C-83.59438761 100.29548119 -84.43585849 98.08382928 -85.3125 95.875 C-85.6122876 95.10800781 -85.9120752 94.34101563 -86.22094727 93.55078125 C-88.33118277 88.29824454 -90.7917957 83.47500177 -93.93359375 78.75 C-95 77 -95 77 -95 75 C-95.66 75 -96.32 75 -97 75 C-97.27851807 75.71172363 -97.55703613 76.42344727 -97.84399414 77.15673828 C-98.98950901 79.97419683 -100.22197425 82.73068283 -101.49609375 85.4921875 C-101.97240234 86.52730469 -102.44871094 87.56242187 -102.93945312 88.62890625 C-103.68098633 90.23572266 -103.68098633 90.23572266 -104.4375 91.875 C-108.82836991 101.38891563 -108.82836991 101.38891563 -113 111 C-114.98 110.505 -114.98 110.505 -117 110 C-118.28507075 104.87568061 -117.51255078 101.0408612 -115.9375 96.125 C-115.59730835 95.02321411 -115.59730835 95.02321411 -115.25024414 93.89916992 C-113.60266497 88.66104299 -111.82113694 83.47020733 -109.9375 78.3125 C-109.70474365 77.66619629 -109.4719873 77.01989258 -109.23217773 76.35400391 C-107.1669365 70.88723096 -104.93047709 66.28698472 -100 63 C-96.51872913 63.34615743 -95.9435637 64.06136259 -93.44921875 66.7734375 C-92.51669875 67.96470204 -91.59672498 69.165862 -90.6875 70.375 C-90.20547119 71.0040625 -89.72344238 71.633125 -89.22680664 72.28125 C-83.828519 79.41041717 -78.62256145 86.36687907 -76 95 C-75.39281935 92.77161621 -74.78882127 90.54246725 -74.1875 88.3125 C-74.00300293 87.63131104 -73.81850586 86.95012207 -73.62841797 86.24829102 C-72.49107721 81.99882627 -71.51356573 77.74730983 -70.625 73.4375 C-66.23208332 54.34700572 -55.06476212 40.45896137 -41.73583984 26.79150391 C-40.1100534 25.11358254 -38.51500824 23.4116898 -36.92578125 21.69921875 C-28.51636009 12.77519122 -13.21813607 -1.70556594 0 0 Z " fill="#FDFDFD" transform="translate(311,162)"/>
<path d="M0 0 C6.47242104 4.12616841 10.26463197 9.40838779 12.125 16.875 C14.55053213 32.96099434 12.68186894 47.97895716 9.29296875 63.74609375 C6.38734908 77.50126864 4.52211878 89.70836889 9.99609375 102.98828125 C14.17452387 113.60429271 13.34133631 124.4018025 9.0625 134.75 C5.62999104 142.55604749 1.03380741 152.9205963 -6.875 156.875 C-14.37115278 157.85376035 -19.53122384 156.92021571 -25.73046875 152.57421875 C-42.30047809 139.65794455 -49.4124964 113.03102024 -52.453125 93.08203125 C-55.07955128 70.16225032 -49.98556338 52.60027233 -40.55859375 31.91015625 C-38.31258119 26.94778237 -36.36161475 21.95034462 -34.5625 16.8125 C-31.6513184 8.92014649 -29.08432889 3.01777099 -21.1875 -0.625 C-13.88968653 -3.06856217 -6.97359593 -3.57353423 0 0 Z " fill="#AB6772" transform="translate(387.875,145.125)"/>
<path d="M0 0 C9.95159576 5.82365328 18.1908403 11.7945216 21.26953125 23.328125 C24.52838409 39.32612987 20.40076896 52.62883582 12.26953125 66.328125 C9.8310722 69.90578693 7.19491414 73.14042708 4.26953125 76.328125 C3.26212891 77.45541016 3.26212891 77.45541016 2.234375 78.60546875 C-4.12002368 85.37614789 -8.66842576 87.31333981 -17.85546875 87.765625 C-26.78728238 88.22186695 -34.40815294 90.52165488 -42.62890625 93.92578125 C-43.62180664 94.33534058 -43.62180664 94.33534058 -44.63476562 94.75317383 C-46.50507576 95.53609974 -48.36425662 96.34545794 -50.22265625 97.15625 C-54.71873531 98.65828087 -58.58616423 99.39839298 -62.953125 97.21875 C-70.90588699 90.1271151 -75.98517464 80.00567531 -77.015625 69.390625 C-77.77821989 52.18335567 -70.63538498 31.70079677 -59.23046875 18.703125 C-57.75240638 17.22256168 -56.25391049 15.76195252 -54.73046875 14.328125 C-54.14136719 13.709375 -53.55226562 13.090625 -52.9453125 12.453125 C-40.08493247 -0.20940303 -17.01330524 -8.23130952 0 0 Z " fill="#AB6772" transform="translate(255.73046875,101.671875)"/>
<path d="M0 0 C3.84612364 1.56693926 6.12412231 4.05564903 9 7 C9.94875 7.66 10.8975 8.32 11.875 9 C16.74158511 12.91608021 19.43611604 19.43986111 22 25 C22 25.66 22 26.32 22 27 C23.670625 27.309375 23.670625 27.309375 25.375 27.625 C26.57125 28.07875 27.7675 28.5325 29 29 C30.88273711 33.35179374 31.70862672 37.97794804 32.5625 42.625 C32.69180908 43.31851563 32.82111816 44.01203125 32.9543457 44.7265625 C34.04319149 50.79010298 34.66210102 56.84790821 35 63 C21.82018715 72.76282434 8.96437244 74.06915054 -7 75 C-7.70640625 75.04672852 -8.4128125 75.09345703 -9.140625 75.14160156 C-18.26901814 75.70269598 -23.89615259 74.47934889 -30.875 68.5625 C-36.62135581 61.63307094 -35.70204887 52.84667955 -35.23388672 44.29980469 C-33.86904891 30.87937451 -23.0353148 17.36810595 -13 9 C-10.14887426 7.02614372 -7.26497713 5.18296108 -4.28515625 3.41015625 C-1.91528864 2.06889872 -1.91528864 2.06889872 0 0 Z " fill="#2E85AA" transform="translate(377,405)"/>
<path d="M0 0 C0.66 0 1.32 0 2 0 C4.81042516 3.87382928 6.40550745 7.22440694 7 12 C5.73312601 15.99824284 3.44485089 19.40655268 1.24389648 22.94750977 C-7.42587623 36.896423 -10.48332463 53.12539693 -14 69 C-13.38511719 68.57847656 -12.77023438 68.15695313 -12.13671875 67.72265625 C-11.32847656 67.17480469 -10.52023438 66.62695312 -9.6875 66.0625 C-8.48673828 65.24458984 -8.48673828 65.24458984 -7.26171875 64.41015625 C-2.45438092 61.41283508 2.49501133 61.37563228 8 62 C11.42968256 63.85774472 12.62522661 65.07985744 14.08984375 68.67578125 C17.6178805 81.56144337 14.24567345 92.94937692 9.7265625 105.02734375 C3.55282713 121.86329592 4.39819092 138.19457277 10 155 C10.1875 158.5625 10.1875 158.5625 10 162 C9.34 162.66 8.68 163.32 8 164 C6.65538758 163.20630517 5.32505978 162.38842409 4 161.5625 C2.88625 160.88380859 2.88625 160.88380859 1.75 160.19140625 C-5.73304601 154.22835396 -10.72995897 146.73171908 -15.3125 138.4375 C-15.82361328 137.54353516 -16.33472656 136.64957031 -16.86132812 135.72851562 C-30.49762602 111.48817853 -29.06630817 77.29699158 -22 51 C-21.55948168 49.22666533 -21.11939149 47.45322426 -20.6796875 45.6796875 C-17.75526367 34.32766151 -13.7458242 24.20107215 -8 14 C-7.43684082 12.99042236 -7.43684082 12.99042236 -6.86230469 11.96044922 C-4.61761609 7.94799696 -2.32891427 3.9641094 0 0 Z " fill="#AC6873" transform="translate(78,164)"/>
<path d="M0 0 C0.66 0.33 1.32 0.66 2 1 C2.7956336 3.77721161 3.4662729 6.49145206 4.0625 9.3125 C4.2387793 10.13411621 4.41505859 10.95573242 4.59667969 11.80224609 C5.92377822 18.2006673 6.80514715 24.45972174 7 31 C7.05994141 32.74023438 7.05994141 32.74023438 7.12109375 34.515625 C7.39078816 50.18962947 6.47797859 65.97774036 1.8046875 81.00390625 C0.7167322 85.05469127 0.26011543 87.59421931 2.25 91.375 C2.8275 92.24125 3.405 93.1075 4 94 C25.27084205 129.13564193 26.6727395 171.86182596 17.3125 210.8125 C11.0334946 232.24516803 1.61657342 252.38847761 -14.125 268.375 C-14.62797607 268.88748291 -15.13095215 269.39996582 -15.64916992 269.92797852 C-18.55013777 272.80316847 -21.40284527 275.06307053 -25 277 C-25.33848652 275.10507994 -25.67056911 273.20901534 -26 271.3125 C-26.185625 270.25675781 -26.37125 269.20101563 -26.5625 268.11328125 C-27.33929763 262.58553383 -27.33929763 262.58553383 -27 260 C-25.34765625 258.03515625 -25.34765625 258.03515625 -23.0625 256.0625 C-13.23069579 246.72460118 -7.10950703 234.41379944 -2 222 C-1.69819824 221.27635254 -1.39639648 220.55270508 -1.08544922 219.80712891 C14.33426496 182.00421896 10.98680304 141.46293264 -1.30737305 103.3581543 C-2.02275594 100.92252394 -2.53812401 98.49501698 -3 96 C-3.66 96 -4.32 96 -5 96 C-5.433125 97.175625 -5.433125 97.175625 -5.875 98.375 C-7 101 -7 101 -9 103 C-11.64 100.36 -14.28 97.72 -17 95 C-15.93661801 91.54400852 -14.68883109 88.31329848 -13.125 85.0625 C-7.92516958 73.57223803 -5.87010335 61.11318871 -5.796875 48.58203125 C-5.78832489 47.41337776 -5.78832489 47.41337776 -5.77960205 46.22111511 C-5.77021734 44.58158701 -5.76364431 42.94204061 -5.75976562 41.30249023 C-5.75009247 38.83607833 -5.71902028 36.3705129 -5.6875 33.90429688 C-5.63214834 25.37917651 -6.07538762 17.73699071 -8.35253906 9.4753418 C-9 7 -9 7 -9 4 C-7.54618103 3.30300448 -6.08677047 2.61766134 -4.625 1.9375 C-3.81289063 1.55464844 -3.00078125 1.17179688 -2.1640625 0.77734375 C-1.44992187 0.52082031 -0.73578125 0.26429688 0 0 Z " fill="#FEFEFE" transform="translate(437,191)"/>
<path d="M0 0 C0.66 0 1.32 0 2 0 C6.6968122 13.18948823 10.57109045 26.20556717 13 40 C13.22558594 41.20140625 13.45117188 42.4028125 13.68359375 43.640625 C18.16535138 71.21116161 14.78680775 100.29782964 4 126 C3.68514648 126.75635742 3.37029297 127.51271484 3.04589844 128.29199219 C-2.88287687 142.26653175 -10.36327132 154.94773661 -22 165 C-22.33 165 -22.66 165 -23 165 C-23.63965638 162.10803242 -24.23691923 159.21727923 -24.8125 156.3125 C-24.99748047 155.49587891 -25.18246094 154.67925781 -25.37304688 153.83789062 C-25.82268067 151.47492155 -26.14006172 149.40311957 -26 147 C-23.7421875 144.34375 -23.7421875 144.34375 -21 142 C-17.16419845 133.86255021 -15.65273819 125.56685713 -14.8034668 116.69750977 C-14.2362574 111.47676423 -12.66819207 107.66508863 -10.3046875 103.04296875 C-6.2577031 93.60404407 -4.43139708 82.2222352 -4 72 C-3.96003906 71.32839844 -3.92007812 70.65679687 -3.87890625 69.96484375 C-3.54313431 59.3979032 -5.6307256 48.61487445 -7.625 38.28515625 C-8.08191396 35.50083682 -8.15217068 32.81515766 -8 30 C-10.31 29.34 -12.62 28.68 -15 28 C-15 23.50162886 -14.60031091 23.09673457 -11.8125 19.875 C-8.02060353 15.23279948 -5.54624374 10.39315096 -3 5 C-1.3125 1.875 -1.3125 1.875 0 0 Z " fill="#000000" transform="translate(432,287)"/>
<path d="M0 0 C0.69778564 0.25394531 1.39557129 0.50789063 2.11450195 0.76953125 C4 2 4 2 4.80541992 4.1796875 C5.01581909 5.51386719 5.01581909 5.51386719 5.23046875 6.875 C5.39353516 7.86113281 5.55660156 8.84726562 5.72460938 9.86328125 C5.95374023 11.41595703 5.95374023 11.41595703 6.1875 13 C6.35185547 14.00417969 6.51621094 15.00835937 6.68554688 16.04296875 C10.01599727 36.88862183 10.29838406 58.84083677 0.95703125 78.33203125 C-1.22255522 83.10405065 -1.8750488 87.63393146 -2.4375 92.8125 C-3.64918977 102.22050508 -5.47936825 111.66220468 -12 119 C-14.9375 119.5 -14.9375 119.5 -18 119 C-22.20278369 115.55523341 -24.38257957 110.95828697 -26.82421875 106.22070312 C-29.27049897 101.70336894 -31.91723191 99.12211678 -36 96 C-37.72280002 94.37736277 -39.35008999 92.69843677 -41 91 C-39.57646476 87.66863403 -37.8664687 85.72335243 -35.125 83.375 C-34.10792969 82.48941406 -34.10792969 82.48941406 -33.0703125 81.5859375 C-31 80 -31 80 -28.8671875 79.0390625 C-26.47055425 77.70537119 -26.07758811 76.48882274 -25 74 C-24.02337814 72.49834188 -23.04400045 70.99847397 -22.0625 69.5 C-15.75099465 59.06292529 -14.7519628 46.84462823 -15.11328125 34.8984375 C-15.14538577 33.17450655 -15.17593871 31.45054612 -15.20507812 29.7265625 C-15.25454334 27.04215196 -15.31299474 24.35932725 -15.39770508 21.67578125 C-15.47663583 19.06224328 -15.51690249 16.45039797 -15.55078125 13.8359375 C-15.58488602 13.03892426 -15.61899078 12.24191101 -15.65412903 11.42074585 C-15.67531994 7.07686892 -15.21973778 4.7020382 -12.15307617 1.51025391 C-7.87715285 -2.33933871 -5.24253477 -2.0328196 0 0 Z " fill="#AB6772" transform="translate(420,315)"/>
<path d="M0 0 C6.07739322 9.11608982 5.47514684 21.33568941 5.39111328 31.90991211 C5.37508885 34.29925223 5.39101643 36.68688402 5.41015625 39.07617188 C5.4355979 57.1978623 2.7694581 76.92275866 -8 92 C-8.804375 91.319375 -8.804375 91.319375 -9.625 90.625 C-14.35609161 87.38793732 -19.24488851 86.7197007 -24.875 86.375 C-26.02742188 86.30023438 -27.17984375 86.22546875 -28.3671875 86.1484375 C-29.67042969 86.07496094 -29.67042969 86.07496094 -31 86 C-30.7834375 85.46375 -30.566875 84.9275 -30.34375 84.375 C-25.84941316 71.72427408 -27.35588236 60.62463548 -31.80859375 48.43359375 C-36.80538092 34.03301695 -31.99665849 17.20089294 -28 3 C-26.69791667 4.00911458 -25.39583333 5.01822917 -24.09375 6.02734375 C-20.18650367 7.84246378 -16.16028385 8.74495332 -12.04101562 7.32446289 C-10.11881134 6.32825313 -8.31570254 5.24114811 -6.5 4.0625 C-5.86835938 3.67642578 -5.23671875 3.29035156 -4.5859375 2.89257812 C-3.04551285 1.94731755 -1.52097705 0.9762451 0 0 Z " fill="#000000" transform="translate(427,195)"/>
<path d="M0 0 C-1.98 3.3 -3.96 6.6 -6 10 C-11.93031699 9.46677587 -17.39788101 8.16480486 -23.13085938 6.57446289 C-54.51908292 -2.10999936 -85.50669612 -2.46354651 -117.75 0.375 C-118.47337555 0.4379425 -119.1967511 0.50088501 -119.94204712 0.56573486 C-128.41071725 1.26386038 -128.41071725 1.26386038 -136.68066406 3.11572266 C-140 4 -140 4 -144 3 C-143.67 -1.29 -143.34 -5.58 -143 -10 C-138.06705265 -11.64431578 -133.78091821 -12.54642679 -128.6875 -13.0625 C-127.99849609 -13.14048828 -127.30949219 -13.21847656 -126.59960938 -13.29882812 C-83.30681724 -17.9223302 -40.9443408 -15.71120054 0 0 Z " fill="#FEFEFE" transform="translate(355,86)"/>
<path d="M0 0 C0.53238281 0.71542969 1.06476563 1.43085938 1.61328125 2.16796875 C4.21216721 5.25175323 7.07990601 7.77017055 10.1875 10.3125 C14.06123125 13.50744079 17.78101674 16.73816493 21.375 20.25 C31.66887855 29.46529201 46.52218713 33.72850822 60 35 C54.19263004 40.80736996 37.41881595 39.36468618 29.34448242 39.37890625 C20.31718245 39.189986 11.34153932 38.12111942 2.375 37.125 C1.57417999 37.03804871 0.77335999 36.95109741 -0.05172729 36.86151123 C-2.34065723 36.6091263 -4.62741718 36.34254467 -6.9140625 36.0703125 C-7.96426826 35.95450836 -7.96426826 35.95450836 -9.03569031 35.83636475 C-10.70085359 35.62847644 -12.35338238 35.32347597 -14 35 C-14.33 34.34 -14.66 33.68 -15 33 C-14.36669922 31.23510742 -14.36669922 31.23510742 -13.3046875 29.10546875 C-12.92054688 28.32026855 -12.53640625 27.53506836 -12.140625 26.72607422 C-11.72296875 25.88834473 -11.3053125 25.05061523 -10.875 24.1875 C-7.51837355 17.30876124 -4.48616475 10.47227365 -1.875 3.2734375 C-1 1 -1 1 0 0 Z " fill="#000000" transform="translate(246,307)"/>
<path d="M0 0 C0.66 0 1.32 0 2 0 C4.81042516 3.87382928 6.40550745 7.22440694 7 12 C5.73312601 15.99824284 3.44485089 19.40655268 1.24389648 22.94750977 C-7.10894461 36.38650748 -10.15513599 51.82402424 -13.52270508 67.13085938 C-14 69 -14 69 -15 71 C-17.50390625 71.8515625 -17.50390625 71.8515625 -20.5625 72.625 C-21.57441406 72.88539063 -22.58632813 73.14578125 -23.62890625 73.4140625 C-24.41136719 73.60742188 -25.19382813 73.80078125 -26 74 C-23.60963293 47.60839626 -14.85033987 21.93615103 0 0 Z " fill="#FDFDFD" transform="translate(78,164)"/>
<path d="M0 0 C2.73044194 1.07562864 3.67097665 2.24916752 5.0625 4.8125 C4.89453125 6.82421875 4.89453125 6.82421875 4.0625 8.8125 C2.2421875 9.9375 2.2421875 9.9375 -0.0625 10.8125 C-3.13954686 12.0364917 -5.85113441 13.31919489 -8.625 15.125 C-12.37860275 17.03721272 -13.96395086 16.97548999 -17.9375 15.8125 C-17.5177 10.91483339 -15.62358362 8.94959245 -11.9375 5.8125 C-2.99034875 -0.28938859 -2.99034875 -0.28938859 0 0 Z " fill="#FDFDFD" transform="translate(209.9375,324.1875)"/>
<path d="M0 0 C7.60694124 3.4168294 13.08526912 8.25321543 18 15 C18.75 17.30859375 18.75 17.30859375 19 19 C14.17098782 19.53155171 11.53068636 17.85993145 7.5 15.3125 C6.3965625 14.62800781 5.293125 13.94351562 4.15625 13.23828125 C1.0228123 11.01617754 -1.38405931 8.78675772 -4 6 C-1.125 1.125 -1.125 1.125 0 0 Z " fill="#FBFBFB" transform="translate(127,320)"/>
</svg>
